<svg width="24" height="25" viewBox="0 0 24 25" fill="none" xmlns="http://www.w3.org/2000/svg">
<rect width="24" height="25" fill="#1E1E1E"/>
<g id="DraftLab - 1440" clip-path="url(#clip0_0_1)">
<rect width="1440" height="3240" transform="translate(-160 -3186)" fill="#060606"/>
<g id="Section - Footer">
<rect id="BG-Hero" x="-160" y="-110" width="1440" height="164" fill="url(#paint0_linear_0_1)" fill-opacity="0.3"/>
<g id="footer">
<g id="Frame 231">
<g id="Made">
<g id="github">
<path id="Vector" d="M15 22.1758V18.1758C15.1391 16.9231 14.7799 15.6659 14 14.6758C17 14.6758 20 12.6758 20 9.17578C20.08 7.92578 19.73 6.69578 19 5.67578C19.28 4.52578 19.28 3.32578 19 2.17578C19 2.17578 18 2.17578 16 3.67578C13.36 3.17578 10.64 3.17578 7.99998 3.67578C5.99998 2.17578 4.99998 2.17578 4.99998 2.17578C4.69998 3.32578 4.69998 4.52578 4.99998 5.67578C4.27185 6.69166 3.91845 7.92857 3.99998 9.17578C3.99998 12.6758 6.99998 14.6758 9.99998 14.6758C9.60998 15.1658 9.31998 15.7258 9.14998 16.3258C8.97998 16.9258 8.92998 17.5558 8.99998 18.1758V22.1758" stroke="white" stroke-width="2" stroke-linecap="round" stroke-linejoin="round"/>
<path id="Vector_2" d="M9 18.1758C4.49 20.1758 4 16.1758 2 16.1758" stroke="white" stroke-width="2" stroke-linecap="round" stroke-linejoin="round"/>
</g>
</g>
</g>
</g>
</g>
</g>
<defs>
<linearGradient id="paint0_linear_0_1" x1="-160" y1="-84.8555" x2="246.879" y2="1152.81" gradientUnits="userSpaceOnUse">
<stop stop-color="#19191B"/>
<stop offset="1" stop-color="#760EC8" stop-opacity="0.2"/>
</linearGradient>
<clipPath id="clip0_0_1">
<rect width="1440" height="3240" fill="white" transform="translate(-160 -3186)"/>
</clipPath>
</defs>
</svg>
