<svg width="34" height="34" viewBox="0 0 34 34" fill="none" xmlns="http://www.w3.org/2000/svg">
<path d="M30.515 21.25H24.0833C23.3319 21.25 22.6112 21.5485 22.0799 22.0799C21.5485 22.6112 21.25 23.3319 21.25 24.0833V30.515" stroke="#760EC8" stroke-width="2" stroke-linecap="round" stroke-linejoin="round"/>
<path d="M9.91667 4.73169V7.08336C9.91667 8.21053 10.3644 9.29153 11.1615 10.0886C11.9585 10.8856 13.0395 11.3334 14.1667 11.3334C14.9181 11.3334 15.6388 11.6319 16.1701 12.1632C16.7015 12.6946 17 13.4152 17 14.1667C17 15.725 18.275 17 19.8333 17C20.5848 17 21.3055 16.7015 21.8368 16.1702C22.3682 15.6388 22.6667 14.9181 22.6667 14.1667C22.6667 12.6084 23.9417 11.3334 25.5 11.3334H29.9908" stroke="#760EC8" stroke-width="2" stroke-linecap="round" stroke-linejoin="round"/>
<path d="M15.5833 31.0959V25.5C15.5833 24.7486 15.2848 24.0279 14.7535 23.4966C14.2221 22.9652 13.5014 22.6667 12.75 22.6667C11.9985 22.6667 11.2779 22.3682 10.7465 21.8368C10.2152 21.3055 9.91666 20.5848 9.91666 19.8334V18.4167C9.91666 17.6653 9.61815 16.9446 9.0868 16.4132C8.55544 15.8819 7.83477 15.5834 7.08333 15.5834H2.90416" stroke="#760EC8" stroke-width="2" stroke-linecap="round" stroke-linejoin="round"/>
<path d="M17 31.1667C24.824 31.1667 31.1667 24.8241 31.1667 17C31.1667 9.17601 24.824 2.83337 17 2.83337C9.17596 2.83337 2.83333 9.17601 2.83333 17C2.83333 24.8241 9.17596 31.1667 17 31.1667Z" stroke="#760EC8" stroke-width="2" stroke-linecap="round" stroke-linejoin="round"/>
</svg>
