<svg width="34" height="34" viewBox="0 0 34 34" fill="none" xmlns="http://www.w3.org/2000/svg">
<path d="M26.9167 19.8333C29.0275 17.765 31.1667 15.2858 31.1667 12.0417C31.1667 9.97519 30.3458 7.99335 28.8845 6.53213C27.4233 5.07091 25.4415 4.25 23.375 4.25C20.8817 4.25 19.125 4.95833 17 7.08333C14.875 4.95833 13.1183 4.25 10.625 4.25C8.55852 4.25 6.57668 5.07091 5.11545 6.53213C3.65423 7.99335 2.83333 9.97519 2.83333 12.0417C2.83333 15.3 4.95833 17.7792 7.08333 19.8333L17 29.75L26.9167 19.8333Z" stroke="#760EC8" stroke-width="2" stroke-linecap="round" stroke-linejoin="round"/>
<path d="M17 7.08337L12.8067 11.2767C12.5188 11.5625 12.2904 11.9023 12.1345 12.2768C11.9786 12.6512 11.8983 13.0528 11.8983 13.4584C11.8983 13.864 11.9786 14.2655 12.1345 14.64C12.2904 15.0144 12.5188 15.3543 12.8067 15.64C13.9683 16.8017 15.8242 16.8442 17.0567 15.7392L19.9892 13.0475C20.7242 12.3806 21.6812 12.0111 22.6737 12.0111C23.6663 12.0111 24.6233 12.3806 25.3583 13.0475L29.5517 16.8159" stroke="#760EC8" stroke-width="2" stroke-linecap="round" stroke-linejoin="round"/>
<path d="M25.5 21.25L22.6667 18.4166" stroke="#760EC8" stroke-width="2" stroke-linecap="round" stroke-linejoin="round"/>
<path d="M21.25 25.5L18.4167 22.6666" stroke="#760EC8" stroke-width="2" stroke-linecap="round" stroke-linejoin="round"/>
</svg>
