<svg width="34" height="34" viewBox="0 0 34 34" fill="none" xmlns="http://www.w3.org/2000/svg">
<path d="M31.1667 15.5833V17C31.1523 19.8593 30.2731 22.6473 28.6446 24.9976C27.0161 27.3478 24.7145 29.1503 22.0424 30.168C19.3703 31.1857 16.4528 31.371 13.6735 30.6995C10.8941 30.0281 8.38296 28.5313 6.47017 26.406C4.55739 24.2807 3.33249 21.6263 2.95651 18.7918C2.58054 15.9573 3.07108 13.0754 4.36365 10.5249C5.65622 7.9744 7.69032 5.87474 10.1985 4.50193C12.7067 3.12913 15.5717 2.54744 18.4167 2.83333" stroke="#760EC8" stroke-width="2" stroke-linecap="round" stroke-linejoin="round"/>
<path d="M11.3333 19.8334C11.3333 19.8334 13.4583 22.6667 17 22.6667C20.5417 22.6667 22.6667 19.8334 22.6667 19.8334" stroke="#760EC8" stroke-width="2" stroke-linecap="round" stroke-linejoin="round"/>
<path d="M12.75 12.75H12.7642" stroke="#760EC8" stroke-width="2" stroke-linecap="round" stroke-linejoin="round"/>
<path d="M21.25 12.75H21.2642" stroke="#760EC8" stroke-width="2" stroke-linecap="round" stroke-linejoin="round"/>
<path d="M22.6667 7.08337H31.1667" stroke="#760EC8" stroke-width="2" stroke-linecap="round" stroke-linejoin="round"/>
<path d="M26.9167 2.83337V11.3334" stroke="#760EC8" stroke-width="2" stroke-linecap="round" stroke-linejoin="round"/>
</svg>
