<svg width="34" height="34" viewBox="0 0 34 34" fill="none" xmlns="http://www.w3.org/2000/svg">
<path d="M22.6667 29.75V26.9167C22.6667 25.4138 22.0696 23.9724 21.0069 22.9097C19.9442 21.847 18.5029 21.25 17 21.25H8.5C6.9971 21.25 5.55576 21.847 4.49306 22.9097C3.43035 23.9724 2.83333 25.4138 2.83333 26.9167V29.75" stroke="#760EC8" stroke-width="2" stroke-linecap="round" stroke-linejoin="round"/>
<path d="M12.75 15.5833C15.8796 15.5833 18.4167 13.0463 18.4167 9.91667C18.4167 6.78705 15.8796 4.25 12.75 4.25C9.62038 4.25 7.08333 6.78705 7.08333 9.91667C7.08333 13.0463 9.62038 15.5833 12.75 15.5833Z" stroke="#760EC8" stroke-width="2" stroke-linecap="round" stroke-linejoin="round"/>
<path d="M31.1667 29.75V26.9167C31.1657 25.6612 30.7478 24.4415 29.9786 23.4491C29.2094 22.4568 28.1324 21.7481 26.9167 21.4342" stroke="#760EC8" stroke-width="2" stroke-linecap="round" stroke-linejoin="round"/>
<path d="M22.6667 4.4342C23.8856 4.7463 24.966 5.4552 25.7375 6.44914C26.509 7.44309 26.9278 8.66555 26.9278 9.92379C26.9278 11.182 26.509 12.4045 25.7375 13.3984C24.966 14.3924 23.8856 15.1013 22.6667 15.4134" stroke="#760EC8" stroke-width="2" stroke-linecap="round" stroke-linejoin="round"/>
</svg>
